#!OML:ASF F:\twosubjects\two\Thursday\Session 1\Rory.ASF
:FULLY-SPECIFIED
:DEGREES
369
root 7.02082 17.0865 1.52621 209.228 0.687313 176.953
lowerback 20.6951 1.2344 -2.75184
upperback 9.61835 -0.775843 -0.849601
thorax -1.15552 -1.18194 0.835986
lowerneck -10.1489 -3.30279 -4.51756
upperneck -8.98207 -4.57304 7.39482
head -0.835958 -2.60435 3.05635
rclavicle 7.55382e-015 1.79403e-014
rhumerus -0.276273 45.9073 -71.1423
rradius 73.7636
rwrist -18.2448
rhand -65.9172 60.4101
rfingers 7.12502
rthumb -37.7648 34.5473
lclavicle 7.55382e-015 1.79403e-014
lhumerus -6.60395 -44.3814 72.2059
lradius 74.247
lwrist -2.17926
lhand -31.3 1528.81
lfingers 7.12502
lthumb -4.57282 601.257
rfemur -28.8461 2.7254 -4.62472
rtibia 31.6644
rfoot -24.8741 -20.4687
rtoes -10.2385
lfemur -29.8227 3.9839 -3.99384
ltibia 28.7434
lfoot -20.0596 10.5716
ltoes -17.9198
370
root 7.0225 17.0715 1.55443 209.107 0.500212 176.915
lowerback 20.4828 1.09926 -2.631
upperback 9.5787 -0.898609 -0.811736
thorax -1.08802 -1.23186 0.830471
lowerneck -10.0535 -3.29008 -4.62281
upperneck -8.73199 -4.52762 7.37898
head -0.771154 -2.56155 3.06894
rclavicle 9.34288e-015 1.10822e-014
rhumerus -0.210661 46.1786 -71.2997
rradius 73.3473
rwrist -18.3936
rhand -66.2803 61.2416
rfingers 7.12502
rthumb -38.1077 35.4718
lclavicle 9.34288e-015 1.10822e-014
lhumerus -6.34484 -44.3267 72.1447
lradius 73.7089
lwrist -1.96535
lhand -31.2606 1527.94
lfingers 7.12502
lthumb -4.53475 602.13
rfemur -28.7649 2.5913 -4.59899
rtibia 31.7638
rfoot -24.8142 -20.3371
rtoes -9.95262
lfemur -29.7742 3.92209 -3.97974
ltibia 28.694
lfoot -19.8967 10.6945
ltoes -18.2516
371
root 7.02534 17.0776 1.57603 208.734 0.347071 177.029
lowerback 20.5909 0.678485 -2.90037
upperback 9.43469 -1.47164 -0.390219
thorax -1.2611 -1.52276 1.55561
lowerneck -9.57576 -3.89932 -5.72882
upperneck -8.38569 -3.68449 7.58004
head -0.748303 -1.3484 3.36696
rclavicle -1.23246e-014 4.37326e-015
rhumerus 1.31699 48.1646 -69.8573
rradius 72.9788
rwrist -19.3147
rhand -66.4535 60.4857
rfingers 7.12502
rthumb -38.2712 34.7608
lclavicle -1.23246e-014 4.37326e-015
lhumerus -7.12148 -42.7525 73.2084
lradius 72.8267
lwrist -2.3928
lhand -30.7382 1528.82
lfingers 7.12502
lthumb -4.03029 601.242
rfemur -28.4311 2.52993 -4.34587
rtibia 31.7975
rfoot -24.6268 -20.3032
rtoes -10.8624
lfemur -29.5262 3.76799 -3.79212
ltibia 28.7126
lfoot -19.8507 10.9642
ltoes -19.8077
372
root 7.03014 17.0822 1.59962 208.41 0.244663 177.318
lowerback 20.6492 0.730303 -2.48172
upperback 9.46637 -1.33601 -0.412423
thorax -1.27071 -1.44622 1.26732
lowerneck -9.53069 -3.88227 -5.25117
upperneck -8.3323 -3.72343 7.2932
head -0.752514 -1.38486 3.17568
rclavicle -5.26779e-015 -9.44227e-015
rhumerus 3.0565 48.1941 -68.7247
rradius 72.0448
rwrist -20.4361
rhand -66.2869 57.7857
rfingers 7.12502
rthumb -38.1139 32.0175
lclavicle -5.26779e-015 -9.44227e-015
lhumerus -6.4383 -42.9665 72.7708
lradius 72.3116
lwrist -3.43416
lhand -28.3153 1708.38
lfingers 7.12502
lthumb -1.69043 598.405
rfemur -28.2636 2.67692 -3.975
rtibia 31.9038
rfoot -24.6819 -20.1826
rtoes -10.7855
lfemur -29.2521 3.71054 -3.42467
ltibia 28.6113
lfoot -19.7844 11.4363
ltoes -22.5234
373
root 7.03365 17.0847 1.62639 208.308 0.197477 177.685
lowerback 20.4083 1.05126 -1.75854
upperback 9.6678 -0.806315 -0.617621
thorax -0.960615 -1.17146 0.520084
lowerneck -10.0923 -3.22113 -4.18467
upperneck -8.3592 -4.47257 6.78222
head -0.672925 -2.52044 2.77884
rclavicle -3.62782e-015 -4.96962e-016
rhumerus 1.54488 46.5622 -70.2102
rradius 72.1529
rwrist -19.7134
rhand -66.2324 57.5912
rfingers 7.12502
rthumb -38.0625 31.809
lclavicle -3.62782e-015 -4.96962e-016
lhumerus -4.72418 -44.5329 71.3904
lradius 71.6712
lwrist -0.85177
lhand -31.5717 1528.73
lfingers 7.12502
lthumb -4.83519 601.346
rfemur -28.3392 2.94156 -3.59474
rtibia 31.9043
rfoot -24.4293 -20.3723
rtoes -11.0731
lfemur -29.1714 3.87901 -3.02461
ltibia 28.5048
lfoot -19.3253 11.311
ltoes -21.9413
374
root 7.03352 17.095 1.64909 208.134 0.0253411 177.54
lowerback 20.2239 1.07972 -1.60529
upperback 9.79571 -0.755491 -0.671446
thorax -0.732286 -1.14944 0.360132
lowerneck -10.5133 -3.42205 -4.03504
upperneck -8.04564 -4.74763 6.76624
head -0.490129 -2.6481 2.7218
rclavicle -3.8266e-015 -3.8763e-015
rhumerus 1.46655 46.0534 -70.2298
rradius 71.9901
rwrist -19.6482
rhand -65.5994 57.4937
rfingers 7.12502
rthumb -37.4645 31.5508
lclavicle -3.8266e-015 -3.8763e-015
lhumerus -3.58142 -44.9077 70.5916
lradius 71.6358
lwrist -0.0172793
lhand -30.3318 1529.21
lfingers 7.12502
lthumb -3.63789 600.843
rfemur -28.1501 2.79775 -3.62573
rtibia 31.9176
rfoot -24.47 -20.368
rtoes -10.8784
lfemur -29.1408 3.68104 -3.0979
ltibia 28.4769
lfoot -19.2946 11.3134
ltoes -22.0367
375
root 7.02896 17.1056 1.66238 207.661 -0.693708 177.13
lowerback 20.4543 0.623388 -1.48331
upperback 9.72499 -1.32562 -0.548115
thorax -0.912987 -1.42712 0.544163
lowerneck -10.0522 -3.33609 -4.6166
upperneck -7.97266 -4.55401 6.96829
head -0.5344 -2.52698 2.9124
rclavicle -3.13583e-014 -2.08724e-015
rhumerus 1.9604 46.744 -69.8919
rradius 71.4316
rwrist -19.9114
rhand -64.8934 55.7998
rfingers 7.12502
rthumb -36.7968 29.6831
lclavicle -3.13583e-014 -2.08724e-015
lhumerus -3.81874 -44.4502 70.8932
lradius 70.9864
lwrist 0.242075
lhand -31.1847 1527.44
lfingers 7.12502
lthumb -4.46151 602.631
rfemur -27.2745 2.40466 -3.64427
rtibia 31.9035
rfoot -24.7548 -20.4433
rtoes -10.5228
lfemur -28.9771 2.95022 -3.19843
ltibia 28.4506
lfoot -19.3422 11.3229
ltoes -22.1553
